# xmcd
#
# Track frame offsets: 
#        150
#        13952
#        27255
#        42068
#        56341
#        69321
#        81669
#        94615
#        108020
#        122251
#        137410
#        151158
#        163626
#        176702
#        190932
#        204441
#        217865
#        231295
#        245910
#        259409
#        273280
#        286333
#        298555
#        311117
#
# Disc length: 4319 seconds
#
# Revision: 1
# Processed by: cddbd v1.5.2PL0 Copyright (c) Steve Scherf et al.
# Submitted via: ExactAudioCopy v1.3
#
DISCID=5210dd18
DTITLE=Blind Blake - The Rough Guide to Blues Legends: Blind Blake (Di
DTITLE=sc 2)
DYEAR=2013
DGENRE=Blues
TTITLE0=Blind Willie McTell - Georgia Rag
TTITLE1=Blind Boy Fuller - Mama Let Me Lay It On You
TTITLE2=Luke Jordan - Cocaine Blues
TTITLE3=William Moore - Ragtime Millionaire
TTITLE4=Big Bill Broonzy - Hokum Stomp
TTITLE5=Charley Patton - Hang It On The Wall
TTITLE6=Banjo Joe - My Money Never Runs Out
TTITLE7=Robert Wilkins - Old Jim Canaan's
TTITLE8=Willie Walker - South Carolina Rag (Take 2)
TTITLE9=The Allen Brothers - Bow Wow Blues
TTITLE10=Buddy Boy Hawkins - How Come Mama Blues
TTITLE11=Will Ezel - West Coast Rag
TTITLE12=Papa Charlie Jackson - Your Baby Ain't Sweet Like Mine
TTITLE13=Bayless Rose - Black Dog Blues
TTITLE14=Pink Anderson and Simmie Dooley - Papa's 'Bout To Get mad
TTITLE15=Robert Johnson - They're Red Hot
TTITLE16=Bessie Smith - Nobody Knows You When You're Down And Out
TTITLE17=Dallas String Band with Coley Jones - Hokum Blues
TTITLE18=Bo Carter - She's Your Cook, But She Burns My Bread
TTITLE19=Reverend Gary Davis - Lord I Wish I Could See
TTITLE20=William Harris - Hot Time Blues
TTITLE21=Bogus Ben Covington - Adam And Eve In The Garden
TTITLE22=Mississippi John Hurt - Candy Man Blues
TTITLE23=Blind Lemon Jefferson - Beggin' Back
EXTD=
EXTT0=
EXTT1=
EXTT2=
EXTT3=
EXTT4=
EXTT5=
EXTT6=
EXTT7=
EXTT8=
EXTT9=
EXTT10=
EXTT11=
EXTT12=
EXTT13=
EXTT14=
EXTT15=
EXTT16=
EXTT17=
EXTT18=
EXTT19=
EXTT20=
EXTT21=
EXTT22=
EXTT23=
PLAYORDER=
